<svg height="512pt" viewBox="-80 0 512 512" width="512pt" xmlns="http://www.w3.org/2000/svg"><path d="m48 0h256v240h-256zm0 0" fill="#4dd0e1"/><path d="m112 0h128v240h-128zm0 0" fill="#80deea"/><path d="m352 336c0 97.203125-78.796875 176-176 176s-176-78.796875-176-176 78.796875-176 176-176 176 78.796875 176 176zm0 0" fill="#ffd54f"/><path d="m235.328125 427.296875-59.328125-31.183594-59.328125 31.183594 11.328125-66.066406-48-46.796875 66.335938-9.632813 29.664062-60.097656 29.664062 60.097656 66.335938 9.632813-48 46.796875zm0 0" fill="#fff"/></svg>